<svg width="280" height="280" viewBox="0 0 280 280" fill="none" xmlns="http://www.w3.org/2000/svg">
<mask id="mask0_112_662" style="mask-type:luminance" maskUnits="userSpaceOnUse" x="0" y="0" width="280" height="280">
<path d="M280 0H0V280H280V0Z" fill="white"/>
</mask>
<g mask="url(#mask0_112_662)">
<mask id="mask1_112_662" style="mask-type:luminance" maskUnits="userSpaceOnUse" x="-63" y="-63" width="406" height="406">
<path d="M-62.2236 -62.2235H342.223V342.223H-62.2236V-62.2235Z" fill="white"/>
</mask>
<g mask="url(#mask1_112_662)">
<g opacity="0.323074">
<path d="M162.899 44.0508C162.899 48.88 158.984 52.7951 154.155 52.7951C149.326 52.7951 145.411 48.88 145.411 44.0508C145.411 39.2218 149.326 35.307 154.155 35.307C158.984 35.307 162.899 39.2218 162.899 44.0508Z" fill="#0DA673" fill-opacity="0.4"/>
</g>
<g opacity="0.599574">
<path d="M112.17 61.4212L106.977 64.4193C106.037 64.9621 104.835 64.6398 104.292 63.6999L94.9151 47.4589C94.3722 46.5189 94.6945 45.3168 95.6344 44.7742L100.828 41.7759C101.767 41.2333 102.97 41.5553 103.512 42.4953L112.889 58.7363C113.432 59.6765 113.11 60.8783 112.17 61.4212Z" fill="#46F5BB" fill-opacity="0.4"/>
</g>
<g opacity="0.599574">
<path d="M44.2786 82.4101L45.4466 82.8064C46.771 83.2556 48.2318 83.0241 49.3528 82.1875L50.3414 81.4499C53.1642 79.3433 57.1775 81.388 57.1325 84.91L57.1168 86.1433C57.0987 87.5419 57.77 88.8597 58.9119 89.6673L59.9192 90.3795C62.7949 92.4133 62.0901 96.8615 58.7268 97.9072L57.5488 98.2733C56.2132 98.6884 55.1678 99.7344 54.7527 101.07L54.3863 102.248C53.3409 105.611 48.8924 106.316 46.8587 103.44L46.1462 102.433C45.3386 101.291 44.0208 100.62 42.6224 100.638L41.3888 100.653C37.8671 100.698 35.8225 96.6853 37.929 93.8623L38.667 92.8737C39.5035 91.7529 39.7347 90.2922 39.2855 88.9675L38.8893 87.7995C37.7582 84.4637 40.9428 81.2791 44.2786 82.4101Z" fill="#46F5BB" fill-opacity="0.4"/>
</g>
<g opacity="0.599574">
<path d="M42.269 129.269L43.5805 135.121C43.818 136.18 43.152 137.231 42.0925 137.468L23.7934 141.57C22.7343 141.808 21.6832 141.142 21.4454 140.082L20.1339 134.231C19.8967 133.172 20.5627 132.121 21.6219 131.884L39.9213 127.781C40.9804 127.544 42.0315 128.21 42.269 129.269Z" fill="#4DCFA4" fill-opacity="0.4"/>
</g>
<g opacity="0.599574">
<path d="M55.4885 185.744C55.4885 190.573 51.5737 194.488 46.7447 194.488C41.9155 194.488 38.001 190.573 38.001 185.744C38.001 180.915 41.9155 177.001 46.7447 177.001C51.5737 177.001 55.4885 180.915 55.4885 185.744Z" fill="#25F8B1" fill-opacity="0.4"/>
</g>
<g opacity="0.599574">
<path d="M44.2786 214.643L45.4466 215.039C46.771 215.488 48.2318 215.257 49.3528 214.42L50.3414 213.682C53.1642 211.576 57.1775 213.621 57.1325 217.143L57.1168 218.376C57.0987 219.775 57.77 221.093 58.9119 221.9L59.9192 222.612C62.7949 224.646 62.0901 229.094 58.7268 230.14L57.5488 230.506C56.2132 230.921 55.1678 231.967 54.7527 233.303L54.3863 234.48C53.3409 237.844 48.8924 238.549 46.8587 235.673L46.1462 234.666C45.3386 233.524 44.0208 232.852 42.6224 232.87L41.3888 232.886C37.8671 232.931 35.8225 228.918 37.929 226.095L38.667 225.106C39.5035 223.985 39.7347 222.525 39.2855 221.2L38.8893 220.032C37.7582 216.696 40.9428 213.512 44.2786 214.643Z" fill="#33FFBA" fill-opacity="0.4"/>
</g>
<g opacity="0.599574">
<path d="M209.691 80.9197C207.041 77.4662 207.862 72.3218 211.509 69.5234C215.156 66.725 220.338 67.2639 222.987 70.7175C222.993 70.7241 222.997 70.7307 223.002 70.737" stroke="#25F8B1" stroke-opacity="0.4" stroke-width="5.72967" stroke-linecap="round" stroke-linejoin="round"/>
</g>
<g opacity="0.599574">
<path d="M227.11 111.311L228.278 111.707C229.603 112.157 231.064 111.925 232.185 111.089L233.174 110.351C235.997 108.244 240.009 110.289 239.964 113.811L239.949 115.044C239.931 116.443 240.602 117.761 241.744 118.568L242.751 119.281C245.627 121.314 244.923 125.763 241.559 126.808L240.381 127.174C239.045 127.59 238 128.635 237.585 129.971L237.218 131.149C236.173 134.512 231.724 135.217 229.691 132.341L228.979 131.334C228.171 130.192 226.853 129.521 225.455 129.539L224.221 129.555C220.699 129.599 218.654 125.586 220.761 122.764L221.499 121.775C222.335 120.654 222.567 119.193 222.117 117.869L221.721 116.701C220.59 113.365 223.775 110.18 227.11 111.311Z" fill="#33FFBA" fill-opacity="0.4"/>
</g>
<g opacity="0.599574">
<path d="M233.505 187.131C239.451 187.914 243.663 193.725 242.836 200.004C242.009 206.283 236.436 210.806 230.491 210.023C230.479 210.021 230.468 210.02 230.457 210.018" stroke="#25F8B1" stroke-opacity="0.4" stroke-width="4.29725" stroke-linecap="round" stroke-linejoin="round"/>
</g>
<g opacity="0.599574">
<path d="M222.861 246.708L217.668 249.706C216.728 250.249 215.526 249.927 214.983 248.987L205.606 232.746C205.064 231.806 205.386 230.604 206.326 230.061L211.519 227.063C212.459 226.52 213.661 226.842 214.203 227.782L223.58 244.023C224.123 244.963 223.801 246.165 222.861 246.708Z" fill="#46F5BB" fill-opacity="0.4"/>
</g>
<g opacity="0.599574">
<path d="M93.5892 254.059C89.9385 249.301 91.0687 242.214 96.0933 238.359C101.118 234.503 108.257 235.246 111.907 240.004L111.928 240.031" stroke="#0DA673" stroke-opacity="0.4" stroke-width="5.72967" stroke-linecap="round" stroke-linejoin="round"/>
</g>
</g>
<path d="M141.425 73.9769C103.984 73.9769 73.6309 104.33 73.6309 141.771C73.6309 179.213 103.984 209.566 141.425 209.566C178.867 209.566 209.22 179.213 209.22 141.771C209.22 104.33 178.867 73.9769 141.425 73.9769Z" fill="#2AA104"/>
<path d="M115.014 144.33L132.28 161.597L167.84 126.037" fill="#2AA104"/>
<path d="M115.014 144.33L132.28 161.597L167.84 126.037" stroke="white" stroke-width="9.33333" stroke-linecap="round" stroke-linejoin="round"/>
</g>
</svg>
