<svg width="22" height="16" viewBox="0 0 22 16" fill="none" xmlns="http://www.w3.org/2000/svg">
<path d="M0.812505 8.09738C0.729165 7.87287 0.729165 7.6259 0.812505 7.40138C1.62421 5.43324 3.00202 3.75042 4.77128 2.56628C6.54053 1.38214 8.62155 0.75 10.7505 0.75C12.8795 0.75 14.9605 1.38214 16.7297 2.56628C18.499 3.75042 19.8768 5.43324 20.6885 7.40138C20.7718 7.6259 20.7718 7.87287 20.6885 8.09738C19.8768 10.0655 18.499 11.7483 16.7297 12.9325C14.9605 14.1166 12.8795 14.7488 10.7505 14.7488C8.62155 14.7488 6.54053 14.1166 4.77128 12.9325C3.00202 11.7483 1.62421 10.0655 0.812505 8.09738Z" stroke="#C9C9C9" stroke-width="1.5" stroke-linecap="round" stroke-linejoin="round"/>
<path d="M10.7505 10.7493C12.4074 10.7493 13.7505 9.40612 13.7505 7.74927C13.7505 6.09241 12.4074 4.74927 10.7505 4.74927C9.09365 4.74927 7.7505 6.09241 7.7505 7.74927C7.7505 9.40612 9.09365 10.7493 10.7505 10.7493Z" stroke="#C9C9C9" stroke-width="1.5" stroke-linecap="round" stroke-linejoin="round"/>
</svg>
